<svg xmlns="http://www.w3.org/2000/svg" xmlns:svg="http://www.w3.org/2000/svg" id="svg3738" width="24" height="24" version="1.1" viewBox="0 0 24 24"><metadata id="metadata3744"/><path id="path3736" d="M 4 4 C 2.89 4 2 4.89 2 6 L 2 18 C 2 19.104569 2.8954305 20 4 20 L 20 20 C 21.104569 20 22 19.104569 22 18 L 22 8 C 22 6.89 21.1 6 20 6 L 12 6 L 10 4 L 4 4 z M 10.224609 8.6347656 A 2.0299929 2.0299929 0 0 1 12.3125 10.664062 A 2.0299929 2.0299929 0 0 1 10.283203 12.693359 A 2.0299929 2.0299929 0 0 1 10.224609 8.6347656 z M 13.763672 8.6347656 A 2.0299932 2.0299932 0 0 1 13.763672 12.693359 A 1.9661931 1.9661931 0 0 1 12.644531 12.351562 A 2.8999899 2.8999899 0 0 0 12.644531 8.9765625 A 1.9661931 1.9661931 0 0 1 13.763672 8.6347656 z M 10.283203 13.853516 C 14.343189 13.853516 14.34375 16.173828 14.34375 16.173828 L 14.34375 17.333984 L 6.2226562 17.333984 L 6.2226562 16.173828 C 6.2226562 16.173828 6.2232172 13.853516 10.283203 13.853516 z M 14.308594 13.853516 C 17.823381 14.068115 17.822266 16.173828 17.822266 16.173828 L 17.822266 17.333984 L 15.503906 17.333984 L 15.503906 16.173828 A 3.0855892 3.0855892 0 0 0 14.308594 13.853516 z"/></svg>