<svg xmlns="http://www.w3.org/2000/svg" xmlns:svg="http://www.w3.org/2000/svg" id="svg3738" width="24" height="24" version="1.1" viewBox="0 0 24 24"><metadata id="metadata3744"/><path id="path3736" d="M 4 4 C 2.89 4 2 4.89 2 6 L 2 18 C 2 19.104569 2.8954305 20 4 20 L 20 20 C 21.104569 20 22 19.104569 22 18 L 22 8 C 22 6.89 21.1 6 20 6 L 12 6 L 10 4 L 4 4 z M 12.025391 8.6132812 A 2.0714286 2.0714286 0 0 1 14.097656 10.685547 L 14.097656 11.513672 L 14.511719 11.513672 A 0.82857142 0.82857142 0 0 1 15.339844 12.341797 L 15.339844 16.484375 A 0.82857142 0.82857142 0 0 1 14.511719 17.314453 L 9.5390625 17.314453 A 0.82857142 0.82857142 0 0 1 8.7109375 16.484375 L 8.7109375 12.341797 C 8.7109375 11.88194 9.0833475 11.513672 9.5390625 11.513672 L 9.953125 11.513672 L 9.953125 10.685547 A 2.0714286 2.0714286 0 0 1 12.025391 8.6132812 z M 12.025391 9.4414062 A 1.2428571 1.2428571 0 0 0 10.783203 10.685547 L 10.783203 11.513672 L 13.267578 11.513672 L 13.267578 10.685547 A 1.2428571 1.2428571 0 0 0 12.025391 9.4414062 z M 12.025391 13.585938 A 0.82857142 0.82857142 0 0 0 11.197266 14.414062 A 0.82857142 0.82857142 0 0 0 12.025391 15.242188 A 0.82857142 0.82857142 0 0 0 12.853516 14.414062 C 12.853516 13.954206 12.481105 13.585937 12.025391 13.585938 z"/></svg>