<svg xmlns="http://www.w3.org/2000/svg" id="svg2" width="646" height="250" version="1.1" viewBox="0 0 646 250"><metadata id="metadata8"/><g id="layer2" style="display:inline"><rect style="color:#000;display:inline;overflow:visible;visibility:visible;opacity:1;fill:#000;fill-opacity:1;stroke:#a6a6a6;stroke-width:4;stroke-miterlimit:4;stroke-dasharray:none;stroke-opacity:1;marker:none;enable-background:accumulate" id="rect4142" width="558.34" height="163.474" x="44.599" y="43.898" ry="20.533"/><text xml:space="preserve" style="font-style:normal;font-variant:normal;font-weight:400;font-stretch:normal;font-size:21.70548439px;line-height:125%;font-family:Helvetica;-inkscape-font-specification:Helvetica;text-align:start;letter-spacing:0;word-spacing:0;text-anchor:start;fill:#000;fill-opacity:1;stroke:none;stroke-width:1px;stroke-linecap:butt;stroke-linejoin:miter;stroke-opacity:1" id="text4163" x="222.504" y="90.161"><tspan id="tspan4165" x="222.504" y="90.161" style="font-size:32.55822754px;fill:#fff">GET IT AS</tspan></text><text xml:space="preserve" style="font-style:normal;font-variant:normal;font-weight:400;font-stretch:normal;font-size:35.25382233px;line-height:125%;font-family:Helvetica;-inkscape-font-specification:Helvetica;text-align:start;letter-spacing:0;word-spacing:0;text-anchor:start;fill:#fff;fill-opacity:1;stroke:none;stroke-width:1px;stroke-linecap:butt;stroke-linejoin:miter;stroke-opacity:1" id="text4167" x="223.564" y="176.705"><tspan id="tspan4169" x="223.564" y="176.705" style="font-style:normal;font-variant:normal;font-weight:600;font-stretch:normal;font-size:88.134552px;font-family:'Open Sans';-inkscape-font-specification:'Open Sans Semi-Bold'">APK-File</tspan></text><g style="fill:#000" id="g4784" transform="matrix(1.0640299,0,0,1.0640299,-61.475209,-106.93774)"><path id="path4774" d="m 126.7489,161.76071 110.43377,0 0,110.43377 -110.43377,0 z" style="fill:none"/><path id="path4776" d="m 154.35734,244.58604 c 0,2.53077 2.07064,4.60141 4.60141,4.60141 l 4.6014,0 0,16.10493 c 0,3.81916 3.08294,6.9021 6.90212,6.9021 3.81916,0 6.9021,-3.08294 6.9021,-6.9021 l 0,-16.10493 9.20283,0 0,16.10493 c 0,3.81916 3.08294,6.9021 6.9021,6.9021 3.81917,0 6.90212,-3.08294 6.90212,-6.9021 l 0,-16.10493 4.60139,0 c 2.53078,0 4.60141,-2.07064 4.60141,-4.60141 l 0,-46.01408 -55.21688,0 0,46.01408 z m -11.50351,-46.01408 c -3.81918,0 -6.90212,3.08295 -6.90212,6.90212 l 0,32.20986 c 0,3.81915 3.08294,6.9021 6.90212,6.9021 3.81916,0 6.9021,-3.08295 6.9021,-6.9021 l 0,-32.20986 c 0,-3.81917 -3.08294,-6.90212 -6.9021,-6.90212 z m 78.22391,0 c -3.81916,0 -6.9021,3.08295 -6.9021,6.90212 l 0,32.20986 c 0,3.81915 3.08294,6.9021 6.9021,6.9021 3.81917,0 6.90212,-3.08295 6.90212,-6.9021 l 0,-32.20986 c 0,-3.81917 -3.08295,-6.90212 -6.90212,-6.90212 z m -22.86899,-26.87221 5.98182,-5.98182 c 0.9203,-0.92028 0.9203,-2.34672 0,-3.26701 -0.92027,-0.92028 -2.34671,-0.92028 -3.26699,0 l -6.81008,6.81009 c -3.63512,-1.84057 -7.77637,-2.89888 -12.14772,-2.89888 -4.41735,0 -8.55862,1.05831 -12.23974,2.89888 l -6.8561,-6.81009 c -0.92027,-0.92028 -2.34671,-0.92028 -3.267,0 -0.92028,0.92029 -0.92028,2.34673 0,3.26701 l 6.02785,6.02783 c -6.81009,5.01554 -11.27345,13.06801 -11.27345,22.22481 l 55.21688,0 c 0,-9.1568 -4.46335,-17.25529 -11.36547,-22.27082 z m -25.44578,13.06799 -4.60141,0 0,-4.60139 4.60141,0 0,4.60139 z m 23.00703,0 -4.60141,0 0,-4.60139 4.60141,0 0,4.60139 z" style="fill:#fff"/></g></g></svg>