<svg xmlns="http://www.w3.org/2000/svg" xmlns:osb="http://www.openswatchbook.org/uri/2009/osb" xmlns:svg="http://www.w3.org/2000/svg" xmlns:xlink="http://www.w3.org/1999/xlink" id="svg2" width="48" height="48" version="1.0" viewBox="0 0 48 48"><metadata id="metadata64"/><defs id="defs"><linearGradient id="linearGradient6098" osb:paint="solid"><stop style="stop-color:#82c9ff;stop-opacity:1" id="stop6100" offset="0"/></linearGradient><linearGradient id="linearGradient5678"><stop offset="0" style="stop-color:#fff;stop-opacity:1" id="stop5680"/><stop offset="1" style="stop-color:#fff;stop-opacity:0" id="stop5684"/></linearGradient><linearGradient id="linearGradient5650" osb:paint="solid"><stop style="stop-color:#82c9ff;stop-opacity:1" id="stop5652" offset="0"/></linearGradient><clipPath id="clipSilhouette"><rect id="clipSilhouetteBounds" width="38" height="38" x="5" y="5" rx="3" ry="3"/></clipPath><linearGradient id="linearGradientWhiteMidpoint33"><stop id="stopStart" style="stop-color:#fff;stop-opacity:1" offset="0"/><stop id="stopMidpoint" style="stop-color:#fff;stop-opacity:.5" offset=".333"/><stop id="stopEnd" style="stop-color:#fff;stop-opacity:0" offset="1"/></linearGradient><radialGradient id="radialGradientFinish" cx="0" cy="0" r="48" gradientUnits="userSpaceOnUse" xlink:href="#linearGradientWhiteMidpoint33"/><filter id="filterTint" width="1" height="1" x="0" y="0"><feFlood id="feFlood13" flood-color="#fff" flood-opacity=".2" result="floodTintColor"/><feOffset id="feOffset15" dx="0" dy="1" in="SourceAlpha" result="offsetAlpha"/><feComposite id="feComposite17" in="SourceAlpha" in2="offsetAlpha" operator="out" result="edgeAlpha"/><feComposite id="feComposite19" in="floodTintColor" in2="edgeAlpha" operator="in" result="edgeColor"/><feBlend id="feBlend21" in="edgeColor" in2="SourceGraphic" mode="normal" result="tint"/></filter><filter id="filterShade" width="1" height="1" x="0" y="0"><feFlood id="feFlood24" flood-color="#212121" flood-opacity=".2" result="floodShadeColor"/><feOffset id="feOffset26" dx="0" dy="-1" in="SourceAlpha" result="offsetAlpha"/><feComposite id="feComposite28" in="SourceAlpha" in2="offsetAlpha" operator="out" result="edgeAlpha"/><feComposite id="feComposite30" in="floodShadeColor" in2="edgeAlpha" operator="in" result="edgeColor"/><feBlend id="feBlend32" in="edgeColor" in2="SourceGraphic" mode="normal" result="shade"/></filter><filter id="filterShadow" width="2" height="2" x="-.5" y="-.5"><feFlood id="feFlood35" flood-color="#212121" flood-opacity=".2" result="floodShadowColor"/><feComposite id="feComposite37" in="floodShadowColor" in2="SourceAlpha" operator="in" result="shadow"/><feGaussianBlur id="feGaussianBlur39" in="shadow" result="bluredShadow" stdDeviation="1.5"/><feOffset id="feOffset41" dx="0" dy="1.5" in="bluredShadow" result="offsetShadow"/><feComposite id="feComposite43" in="SourceGraphic" in2="offsetShadow" operator="over" result="dropShadow"/></filter></defs><g id="materialBackground" clip-path="url(#clipSilhouette)"><g style="filter:url(#filterShade);fill-opacity:.94117647;fill:#0082cf;stroke:none;stroke-opacity:1" id="g50"><rect style="fill:#0082cf;filter:url(#filterTint);fill-opacity:.94117647;stroke:none;stroke-opacity:1" id="rect52" width="38" height="38" x="5" y="5" rx="3" ry="3"/></g><path style="color:#000;text-indent:0;text-decoration:none;text-decoration-line:none;text-decoration-style:solid;text-decoration-color:#000;text-transform:none;block-progression:tb;white-space:normal;isolation:auto;mix-blend-mode:normal;solid-color:#000;fill:#fff;fill-opacity:1;color-rendering:auto;image-rendering:auto;shape-rendering:auto;enable-background:accumulate" id="path6" d="m 24.069078,16.547649 c -3.53383,3.31e-4 -6.501209,2.357911 -7.407987,5.529718 -0.791338,-1.6964 -2.533238,-2.898709 -4.557066,-2.898709 -2.7549289,3.04e-4 -5.0200633,2.207427 -5.0203459,4.891865 -5.371e-4,2.684935 2.26488,4.892417 5.0203459,4.892966 2.024082,-2.38e-4 3.764767,-1.203218 4.556219,-2.899811 0.906325,3.172195 3.87472,5.530271 7.409118,5.530547 3.51461,2.64e-4 6.467573,-2.332215 7.392439,-5.477116 0.804172,1.665249 2.519305,2.846106 4.520038,2.84638 2.756004,4.7e-4 5.021761,-2.207369 5.021478,-4.892966 -2.66e-4,-2.684934 -2.265899,-4.892415 -5.021478,-4.891865 -2.000705,2.26e-4 -3.716713,1.180966 -4.520885,2.846382 -0.925433,-3.145204 -3.877265,-5.477667 -7.391876,-5.477391 z m 0,2.871719 c 2.653993,-1.72e-4 4.773868,2.064984 4.77415,4.651155 1.32e-4,2.586339 -2.119959,4.652257 -4.77415,4.651982 -2.653991,-2.51e-4 -4.7733,-2.066003 -4.7733,-4.651982 2.78e-4,-2.58573 2.119564,-4.650879 4.7733,-4.651155 z m -11.965053,2.630733 c 1.162587,1.31e-4 2.073152,0.887378 2.073294,2.020202 2.05e-4,1.133073 -0.910453,2.021082 -2.073294,2.02122 -1.162839,-1.31e-4 -2.073489,-0.888147 -2.073291,-2.02122 1.33e-4,-1.132824 0.910679,-2.020091 2.073291,-2.020202 z m 23.877531,0 c 1.162812,-1.97e-4 2.074168,0.887131 2.07431,2.020202 2.77e-4,1.13332 -0.911187,2.021414 -2.07431,2.02122 -1.162868,-1.31e-4 -2.073518,-0.888147 -2.07332,-2.02122 1.32e-4,-1.132824 0.910736,-2.020091 2.07332,-2.020202 z"/></g></svg>