<svg xmlns="http://www.w3.org/2000/svg" xmlns:svg="http://www.w3.org/2000/svg" id="svg2" width="25.6" height="25.6" version="1.1" viewBox="0 0 24 24" style="fill:#000"><metadata id="metadata12"/><path id="path4" d="M 0,0 H 24 V 24 H 0 Z" style="fill:none"/><path id="path6" d="m 10.09,15.59 1.41,1.41 5,-5 -5,-5 -1.41,1.41 2.58,2.59 H 3 v 2 h 9.67 z M 19,3 H 5 C 3.89,3 3,3.9 3,5 V 9 H 5 V 5 H 19 V 19 H 5 V 15 H 3 v 4 c 0,1.1 0.89,2 2,2 h 14 c 1.1,0 2,-0.9 2,-2 V 5 C 21,3.9 20.1,3 19,3 Z" style="fill:#757575;fill-opacity:1"/></svg>