<svg xmlns="http://www.w3.org/2000/svg" xmlns:svg="http://www.w3.org/2000/svg" id="svg5" width="100%" height="100%" version="1.1" viewBox="0 0 1064 1064" xml:space="preserve" style="fill-rule:evenodd;clip-rule:evenodd;stroke-linejoin:round;stroke-miterlimit:1.41421"><metadata id="metadata11"/><g id="path6" transform="translate(-140,-136.064)"><path d="M 672.681,456.07 C 579.33,456.08 500.945,519.999 476.995,605.988 456.091,559.995 410.078,527.4 356.617,527.394 283.844,527.404 224.009,587.243 224,660.022 c -0.014,72.793 59.829,132.645 132.617,132.654 53.467,-0.01 99.45,-32.621 120.351,-78.621 23.941,86.004 102.353,149.936 195.716,149.945 92.84,0.01 170.84,-63.23 195.277,-148.499 21.243,45.148 66.549,77.166 119.395,77.172 72.804,0.013 132.654,-59.846 132.644,-132.654 -0.01,-72.794 -59.86,-132.64 -132.644,-132.628 -52.849,0.01 -98.18,32.018 -119.422,77.172 -24.437,-85.266 -102.41,-148.505 -195.25,-148.499 z m 0,77.856 c 70.106,0 126.109,55.987 126.115,126.099 0,70.12 -56,126.131 -126.115,126.125 -70.106,-0.01 -126.094,-56.014 -126.088,-126.125 0.01,-70.103 55.991,-126.09 126.088,-126.099 z M 356.602,605.25 c 30.712,0 54.764,24.059 54.767,54.772 0,30.719 -24.05,54.795 -54.767,54.798 -30.718,0 -54.772,-24.079 -54.766,-54.798 0,-30.713 24.056,-54.769 54.766,-54.772 z m 630.754,0 c 30.714,-0.01 54.794,24.052 54.794,54.772 0.01,30.728 -24.07,54.804 -54.794,54.798 -30.718,0 -54.772,-24.079 -54.769,-54.798 0,-30.713 24.057,-54.769 54.769,-54.772 z" style="fill:#fff;fill-rule:nonzero" id="path2"/></g></svg>