<svg xmlns="http://www.w3.org/2000/svg" xmlns:svg="http://www.w3.org/2000/svg" id="svg2" width="62" height="62" x="0" y="0" enable-background="new 0 0 196.6 72" version="1.1" viewBox="0 0 62 62" xml:space="preserve"><metadata id="metadata10"/><path style="color:#000;text-indent:0;text-decoration:none;text-decoration-line:none;text-decoration-style:solid;text-decoration-color:#000;text-transform:none;block-progression:tb;white-space:normal;isolation:auto;mix-blend-mode:normal;solid-color:#000;fill:#fff;color-rendering:auto;image-rendering:auto;shape-rendering:auto;enable-background:accumulate" id="path4" d="m 31.023729,17.856035 c -5.95,6e-4 -10.947,4.0745 -12.473,9.5549 -1.333,-2.931 -4.266,-5.0088 -7.674,-5.0092 -4.6384002,5e-4 -8.4524002,3.8142 -8.4530002,8.4532 -8.321e-4,4.6397 3.8137,8.4544 8.4534002,8.455 3.4081,-4.09e-4 6.3392,-2.0792 7.6716,-5.011 1.5261,5.4817 6.5242,9.5569 12.475,9.5569 5.918,4.57e-4 10.89,-4.0302 12.448,-9.4649 1.3541,2.8776 4.242,4.9184 7.6106,4.9188 4.6406,8.28e-4 8.4558,-3.8144 8.4551,-8.455 -4.57e-4,-4.6397 -3.8154,-8.454 -8.4551,-8.4533 -3.3687,8.57e-4 -6.2587,2.0412 -7.6123,4.9188 -1.559,-5.4338 -6.528,-9.4644 -12.446,-9.464 z m 0,4.9623 c 4.4687,-2.97e-4 8.0384,3.5683 8.0389,8.0371 2.28e-4,4.4693 -3.5696,8.0391 -8.0389,8.0388 -4.4687,-4.38e-4 -8.0375,-3.5701 -8.0372,-8.0388 4.57e-4,-4.4682 3.5689,-8.0366 8.0372,-8.0371 z m -20.147,4.5456 c 1.9576,2.26e-4 3.4908,1.5334 3.4911,3.491 3.43e-4,1.958 -1.533,3.4925 -3.4911,3.4927 -1.9580002,-2.28e-4 -3.4913002,-1.5347 -3.4911002,-3.4927 2.284e-4,-1.9575 1.5334,-3.4907 3.4911002,-3.491 z m 40.205,0 c 1.9579,-3.43e-4 3.4925,1.533 3.4927,3.491 4.57e-4,1.9584 -1.5343,3.493 -3.4927,3.4927 -1.958,-2.28e-4 -3.4914,-1.5347 -3.4911,-3.4927 2.21e-4,-1.9575 1.5335,-3.4907 3.4911,-3.491 z"/></svg>