<svg xmlns="http://www.w3.org/2000/svg" width="24" height="24" x="0" y="0" enable-background="new 0 0 24 24" version="1.1" viewBox="0 0 24 24" xml:space="preserve"><g id="Bounding_Box"><rect width="24" height="24" fill="none"/></g><g id="Flat"><g><path d="M17,19.22H5V7h7V5H5C3.9,5,3,5.9,3,7v12c0,1.1,0.9,2,2,2h12c1.1,0,2-0.9,2-2v-7h-2V19.22z"/><path d="M19,2h-2v3h-3c0.01,0.01,0,2,0,2h3v2.99c0.01,0.01,2,0,2,0V7h3V5h-3V2z"/><rect width="8" height="2" x="7" y="9"/><polygon points="7 12 7 14 15 14 15 12 12 12"/><rect width="8" height="2" x="7" y="15"/></g></g></svg>