<svg xmlns="http://www.w3.org/2000/svg" xmlns:svg="http://www.w3.org/2000/svg" id="svg4" width="16" height="16" version="1.1"><metadata id="metadata10"/><path id="path2" d="M12.228 1a2.457 2.457 0 0 0-2.46 2.454c0 .075.01.15.016.224L5.05 6.092a2.445 2.445 0 0 0-1.596-.586A2.453 2.453 0 0 0 1 7.96a2.453 2.453 0 0 0 2.454 2.455 2.45 2.45 0 0 0 1.46-.477l4.865 2.474c-.004.044-.01.09-.01.134a2.457 2.457 0 1 0 .804-1.818l-4.696-2.4c.02-.123.035-.25.035-.378 0-.072-.01-.144-.015-.214l4.74-2.414A2.457 2.457 0 1 0 12.228.99z" style="fill:#757575;fill-opacity:1;stroke:#fff;stroke-opacity:1;stroke-width:.2;stroke-miterlimit:4;stroke-dasharray:none;opacity:.8"/></svg>