<svg xmlns="http://www.w3.org/2000/svg" id="svg8" width="16" height="16" version="1.1"><metadata id="metadata14"/><g style="fill:#000;fill-opacity:1;stroke:#fff;stroke-opacity:1;stroke-width:.2;stroke-miterlimit:4;stroke-dasharray:none;opacity:.8" id="g6" color="#000"><path id="path2" d="M5.99 5.318a3.332 3.332 0 0 0 0 4.693c.116.118.226.22.355.315l1.383-1.383A1.4 1.4 0 0 1 7.33 6.66l3.352-3.352c.568-.57 1.442-.57 2.01 0s.57 1.442 0 2.01l-1.13 1.132c.34.725.464 1.518.377 2.304l2.094-2.095c1.288-1.29 1.288-3.406 0-4.694s-3.405-1.288-4.693 0L5.99 5.318z" style="block-progression:tb;text-transform:none;text-indent:0;fill:#000;fill-opacity:1;stroke:none;stroke-opacity:1;stroke-width:0;stroke-miterlimit:4;stroke-dasharray:none"/><path id="path4" d="M10.01 10.68a3.332 3.332 0 0 0 0-4.692 3.126 3.126 0 0 0-.355-.314L8.272 7.057A1.4 1.4 0 0 1 8.67 9.34l-3.35 3.35c-.57.57-1.444.57-2.013.002s-.568-1.442 0-2.01L4.44 9.55a4.288 4.288 0 0 1-.38-2.305L1.967 9.34c-1.288 1.29-1.288 3.405 0 4.693s3.405 1.29 4.693 0l3.35-3.352z" style="block-progression:tb;text-transform:none;text-indent:0;fill:#000;fill-opacity:1;stroke:none;stroke-opacity:1;stroke-width:.2;stroke-miterlimit:4;stroke-dasharray:none"/></g></svg>