<svg xmlns="http://www.w3.org/2000/svg" id="svg373" width="100%" height="100%" version="1.1" viewBox="0 0 930 650" xml:space="preserve" style="fill-rule:evenodd;clip-rule:evenodd;stroke-linejoin:round;stroke-miterlimit:1.41421"><metadata id="metadata377"/><path id="path86" style="fill:#fff;fill-rule:nonzero;stroke-width:16.71421432" d="m 441.3764,101.88014 c -6.60212,1.28699 -11.61639,7.80554 -11.49939,14.62494 v 371.89127 c 0,7.68854 7.08683,14.64165 14.62494,14.64165 h 438.74813 c 7.5381,0 14.62493,-6.96983 14.62493,-14.62493 V 122.27148 c -0.0171,-11.24867 -8.84182,-20.44148 -17.23234,-20.37463 z"/><g id="g125" clip-path="url(#_clip20)" transform="matrix(1.8318284,0,0,1.8318284,27.677539,-541.01348)"><rect id="rect93" style="fill:url(#_Linear21)" width="234.511" height="424.509" x="230.594" y="264.037"/><path id="path95" style="fill:url(#_Radial22)" d="M 465.104,688.546 H 230.594 V 538.764 h 19.541 l 78.171,-78.17 58.628,58.628 58.628,-78.171 19.542,19.543 z"/><path id="path97" style="fill:url(#_Linear23)" d="m 279.451,382.423 c -16.19,0 -29.314,13.124 -29.314,29.314 0,16.19 13.124,29.314 29.314,29.314 16.19,0 29.314,-13.124 29.314,-29.314 0,-16.19 -13.124,-29.314 -29.314,-29.314 z"/><g id="g123"><g id="g101" transform="matrix(0.175283,0,0,0.175283,355.366,244.014)"><path id="path99" style="fill:url(#_Linear24)" d="m 428.378,321.853 4.039,32.687 32.687,4.04 -32.687,4.039 -4.039,32.687 -4.039,-32.687 -32.687,-4.039 32.687,-4.04 z"/></g><g id="g105" transform="matrix(0.140592,0,0,0.140592,354.045,362.636)"><path id="path103" style="fill:url(#_Linear25)" d="m 428.378,321.853 4.039,32.687 32.687,4.04 -32.687,4.039 -4.039,32.687 -4.039,-32.687 -32.687,-4.039 32.687,-4.04 z"/></g><g id="g109" transform="matrix(0.168563,0,0,0.168563,252.63,234.114)"><path id="path107" style="fill:url(#_Linear26)" d="m 428.378,321.853 4.039,32.687 32.687,4.04 -32.687,4.039 -4.039,32.687 -4.039,-32.687 -32.687,-4.039 32.687,-4.04 z"/></g><g id="g113" transform="matrix(0.222605,0,0,0.210514,236.013,267.415)"><path id="path111" style="fill:url(#_Linear27)" d="m 428.378,321.853 4.039,32.687 32.687,4.04 -32.687,4.039 -4.039,32.687 -4.039,-32.687 -32.687,-4.039 32.687,-4.04 z"/></g><g id="g117" transform="matrix(0.237653,0,0,0.237653,281.118,335.027)"><path id="path115" style="fill:url(#_Linear28)" d="m 428.378,321.853 4.039,32.687 32.687,4.04 -32.687,4.039 -4.039,32.687 -4.039,-32.687 -32.687,-4.039 32.687,-4.04 z"/></g><g id="g121" transform="matrix(0.237653,0,0,0.237653,167.153,222.014)"><path id="path119" style="fill:url(#_Linear29)" d="m 428.378,321.853 4.039,32.687 32.687,4.04 -32.687,4.039 -4.039,32.687 -4.039,-32.687 -32.687,-4.039 32.687,-4.04 z"/></g></g></g><path id="path131" style="fill:#fff;fill-rule:nonzero;stroke-width:9.74822044" d="m 29.95422,195.69988 c -3.85055,0.75061 -6.77502,4.55242 -6.70678,8.52969 v 216.8979 c 0,4.48418 4.13325,8.53944 8.52969,8.53944 h 255.89078 c 4.39644,0 8.52969,-4.06501 8.52969,-8.52969 V 207.59271 c -0.01,-6.56055 -5.15681,-11.92208 -10.05041,-11.88308 z"/><g id="g170" clip-path="url(#_clip30)" transform="translate(-188.126,-148.4721)"><rect id="rect138" style="fill:url(#_Linear31)" width="234.511" height="424.509" x="230.594" y="264.037"/><path id="path140" style="fill:url(#_Radial32)" d="M 465.104,688.546 H 230.594 V 538.764 h 19.541 l 78.171,-78.17 58.628,58.628 58.628,-78.171 19.542,19.543 z"/><path id="path142" style="fill:url(#_Linear33)" d="m 279.451,382.423 c -16.19,0 -29.314,13.124 -29.314,29.314 0,16.19 13.124,29.314 29.314,29.314 16.19,0 29.314,-13.124 29.314,-29.314 0,-16.19 -13.124,-29.314 -29.314,-29.314 z"/><g id="g168"><g id="g146" transform="matrix(0.175283,0,0,0.175283,355.366,244.014)"><path id="path144" style="fill:url(#_Linear34)" d="m 428.378,321.853 4.039,32.687 32.687,4.04 -32.687,4.039 -4.039,32.687 -4.039,-32.687 -32.687,-4.039 32.687,-4.04 z"/></g><g id="g150" transform="matrix(0.140592,0,0,0.140592,354.045,362.636)"><path id="path148" style="fill:url(#_Linear35)" d="m 428.378,321.853 4.039,32.687 32.687,4.04 -32.687,4.039 -4.039,32.687 -4.039,-32.687 -32.687,-4.039 32.687,-4.04 z"/></g><g id="g154" transform="matrix(0.168563,0,0,0.168563,252.63,234.114)"><path id="path152" style="fill:url(#_Linear36)" d="m 428.378,321.853 4.039,32.687 32.687,4.04 -32.687,4.039 -4.039,32.687 -4.039,-32.687 -32.687,-4.039 32.687,-4.04 z"/></g><g id="g158" transform="matrix(0.222605,0,0,0.210514,236.013,267.415)"><path id="path156" style="fill:url(#_Linear37)" d="m 428.378,321.853 4.039,32.687 32.687,4.04 -32.687,4.039 -4.039,32.687 -4.039,-32.687 -32.687,-4.039 32.687,-4.04 z"/></g><g id="g162" transform="matrix(0.237653,0,0,0.237653,281.118,335.027)"><path id="path160" style="fill:url(#_Linear38)" d="m 428.378,321.853 4.039,32.687 32.687,4.04 -32.687,4.039 -4.039,32.687 -4.039,-32.687 -32.687,-4.039 32.687,-4.04 z"/></g><g id="g166" transform="matrix(0.237653,0,0,0.237653,167.153,222.014)"><path id="path164" style="fill:url(#_Linear39)" d="m 428.378,321.853 4.039,32.687 32.687,4.04 -32.687,4.039 -4.039,32.687 -4.039,-32.687 -32.687,-4.039 32.687,-4.04 z"/></g></g></g><defs id="defs371"><radialGradient id="_Radial1" cx="0" cy="0" r="1" gradientTransform="matrix(-145.614,0,0,-50.929558,281.849,583.79291)" gradientUnits="userSpaceOnUse"><stop offset="0%" style="stop-color:#00102b;stop-opacity:.480776" id="stop191"/><stop offset="100%" style="stop-color:black;stop-opacity:0" id="stop193"/></radialGradient><linearGradient id="_Linear2" x1="0" x2="1" y1="0" y2="0" gradientTransform="matrix(-42.6192,-320.496,320.496,-42.6192,272.849,402.965)" gradientUnits="userSpaceOnUse"><stop offset="0%" style="stop-color:#0072a7;stop-opacity:1" id="stop196"/><stop offset="100%" style="stop-color:#080065;stop-opacity:1" id="stop198"/></linearGradient><radialGradient id="_Radial3" cx="0" cy="0" r="1" gradientTransform="matrix(7.50764,112.339,-276.186,18.4576,217.027,255.187)" gradientUnits="userSpaceOnUse"><stop offset="0%" style="stop-color:#001f35;stop-opacity:1" id="stop201"/><stop offset="100%" style="stop-color:#34345c;stop-opacity:1" id="stop203"/></radialGradient><linearGradient id="_Linear4" x1="0" x2="1" y1="0" y2="0" gradientTransform="matrix(4.36862,55.7957,-55.7957,4.36862,198.59,215.426)" gradientUnits="userSpaceOnUse"><stop offset="0%" style="stop-color:#dceaff;stop-opacity:1" id="stop206"/><stop offset="100%" style="stop-color:#ffffeb;stop-opacity:1" id="stop208"/></linearGradient><linearGradient id="_Linear5" x1="0" x2="1" y1="0" y2="0" gradientTransform="matrix(-2.3398703,-9.7204064,17.595784,-1.2926087,355.45338,139.79894)" gradientUnits="userSpaceOnUse"><stop offset="0%" style="stop-color:#dceaff;stop-opacity:1" id="stop211"/><stop offset="100%" style="stop-color:#ffffeb;stop-opacity:1" id="stop213"/></linearGradient><linearGradient id="_Linear6" x1="0" x2="1" y1="0" y2="0" gradientTransform="matrix(-1.8767767,-7.7965997,14.113328,-1.0367831,339.27152,245.40116)" gradientUnits="userSpaceOnUse"><stop offset="0%" style="stop-color:#dceaff;stop-opacity:1" id="stop216"/><stop offset="100%" style="stop-color:#ffffeb;stop-opacity:1" id="stop218"/></linearGradient><linearGradient id="_Linear7" x1="0" x2="1" y1="0" y2="0" gradientTransform="matrix(-2.2501643,-9.3477454,16.921197,-1.2430527,249.83868,127.37687)" gradientUnits="userSpaceOnUse"><stop offset="0%" style="stop-color:#dceaff;stop-opacity:1" id="stop221"/><stop offset="100%" style="stop-color:#ffffeb;stop-opacity:1" id="stop223"/></linearGradient><linearGradient id="_Linear8" x1="0" x2="1" y1="0" y2="0" gradientTransform="matrix(-2.9715764,-11.674159,22.346203,-1.5524165,256.37208,176.42238)" gradientUnits="userSpaceOnUse"><stop offset="0%" style="stop-color:#dceaff;stop-opacity:1" id="stop226"/><stop offset="100%" style="stop-color:#ffffeb;stop-opacity:1" id="stop228"/></linearGradient><linearGradient id="_Linear9" x1="0" x2="1" y1="0" y2="0" gradientTransform="matrix(-3.1724537,-13.179166,23.856796,-1.7525507,307.92332,254.21983)" gradientUnits="userSpaceOnUse"><stop offset="0%" style="stop-color:#dceaff;stop-opacity:1" id="stop231"/><stop offset="100%" style="stop-color:#ffffeb;stop-opacity:1" id="stop233"/></linearGradient><linearGradient id="_Linear10" x1="0" x2="1" y1="0" y2="0" gradientTransform="matrix(-3.1724537,-13.179166,23.856796,-1.7525507,193.95832,141.20683)" gradientUnits="userSpaceOnUse"><stop offset="0%" style="stop-color:#dceaff;stop-opacity:1" id="stop236"/><stop offset="100%" style="stop-color:#ffffeb;stop-opacity:1" id="stop238"/></linearGradient><linearGradient id="_Linear12" x1="0" x2="1" y1="0" y2="0" gradientTransform="matrix(-42.6192,-320.496,320.496,-42.6192,347.849,572.965)" gradientUnits="userSpaceOnUse"><stop offset="0%" style="stop-color:#0072a7;stop-opacity:1" id="stop241"/><stop offset="100%" style="stop-color:#080065;stop-opacity:1" id="stop243"/></linearGradient><radialGradient id="_Radial13" cx="0" cy="0" r="1" gradientTransform="matrix(7.50764,112.339,-276.186,18.4576,292.027,425.187)" gradientUnits="userSpaceOnUse"><stop offset="0%" style="stop-color:#001f35;stop-opacity:1" id="stop246"/><stop offset="100%" style="stop-color:#34345c;stop-opacity:1" id="stop248"/></radialGradient><linearGradient id="_Linear14" x1="0" x2="1" y1="0" y2="0" gradientTransform="matrix(4.36862,55.7957,-55.7957,4.36862,273.59,385.426)" gradientUnits="userSpaceOnUse"><stop offset="0%" style="stop-color:#dceaff;stop-opacity:1" id="stop251"/><stop offset="100%" style="stop-color:#ffffeb;stop-opacity:1" id="stop253"/></linearGradient><linearGradient id="_Linear15" x1="0" x2="1" y1="0" y2="0" gradientTransform="matrix(-13.3491,-55.4555,100.385,-7.37441,428.378,375.307)" gradientUnits="userSpaceOnUse"><stop offset="0%" style="stop-color:#dceaff;stop-opacity:1" id="stop256"/><stop offset="100%" style="stop-color:#ffffeb;stop-opacity:1" id="stop258"/></linearGradient><linearGradient id="_Linear16" x1="0" x2="1" y1="0" y2="0" gradientTransform="matrix(-13.3491,-55.4555,100.385,-7.37441,428.378,375.307)" gradientUnits="userSpaceOnUse"><stop offset="0%" style="stop-color:#dceaff;stop-opacity:1" id="stop261"/><stop offset="100%" style="stop-color:#ffffeb;stop-opacity:1" id="stop263"/></linearGradient><linearGradient id="_Linear17" x1="0" x2="1" y1="0" y2="0" gradientTransform="matrix(-13.3491,-55.4555,100.385,-7.37441,428.378,375.307)" gradientUnits="userSpaceOnUse"><stop offset="0%" style="stop-color:#dceaff;stop-opacity:1" id="stop266"/><stop offset="100%" style="stop-color:#ffffeb;stop-opacity:1" id="stop268"/></linearGradient><linearGradient id="_Linear18" x1="0" x2="1" y1="0" y2="0" gradientTransform="matrix(-13.3491,-55.4555,100.385,-7.37441,428.378,375.307)" gradientUnits="userSpaceOnUse"><stop offset="0%" style="stop-color:#dceaff;stop-opacity:1" id="stop271"/><stop offset="100%" style="stop-color:#ffffeb;stop-opacity:1" id="stop273"/></linearGradient><linearGradient id="_Linear19" x1="0" x2="1" y1="0" y2="0" gradientTransform="matrix(-13.3491,-55.4555,100.385,-7.37441,428.378,375.307)" gradientUnits="userSpaceOnUse"><stop offset="0%" style="stop-color:#dceaff;stop-opacity:1" id="stop276"/><stop offset="100%" style="stop-color:#ffffeb;stop-opacity:1" id="stop278"/></linearGradient><linearGradient id="_Linear21" x1="0" x2="1" y1="0" y2="0" gradientTransform="matrix(-42.6192,-320.496,320.496,-42.6192,347.849,572.965)" gradientUnits="userSpaceOnUse"><stop offset="0%" style="stop-color:#0072a7;stop-opacity:1" id="stop281"/><stop offset="100%" style="stop-color:#080065;stop-opacity:1" id="stop283"/></linearGradient><radialGradient id="_Radial22" cx="0" cy="0" r="1" gradientTransform="matrix(7.50764,112.339,-276.186,18.4576,292.027,425.187)" gradientUnits="userSpaceOnUse"><stop offset="0%" style="stop-color:#001f35;stop-opacity:1" id="stop286"/><stop offset="100%" style="stop-color:#34345c;stop-opacity:1" id="stop288"/></radialGradient><linearGradient id="_Linear23" x1="0" x2="1" y1="0" y2="0" gradientTransform="matrix(4.36862,55.7957,-55.7957,4.36862,273.59,385.426)" gradientUnits="userSpaceOnUse"><stop offset="0%" style="stop-color:#dceaff;stop-opacity:1" id="stop291"/><stop offset="100%" style="stop-color:#ffffeb;stop-opacity:1" id="stop293"/></linearGradient><linearGradient id="_Linear24" x1="0" x2="1" y1="0" y2="0" gradientTransform="matrix(-13.3491,-55.4555,100.385,-7.37441,428.378,375.307)" gradientUnits="userSpaceOnUse"><stop offset="0%" style="stop-color:#dceaff;stop-opacity:1" id="stop296"/><stop offset="100%" style="stop-color:#ffffeb;stop-opacity:1" id="stop298"/></linearGradient><linearGradient id="_Linear25" x1="0" x2="1" y1="0" y2="0" gradientTransform="matrix(-13.3491,-55.4555,100.385,-7.37441,428.378,375.307)" gradientUnits="userSpaceOnUse"><stop offset="0%" style="stop-color:#dceaff;stop-opacity:1" id="stop301"/><stop offset="100%" style="stop-color:#ffffeb;stop-opacity:1" id="stop303"/></linearGradient><linearGradient id="_Linear26" x1="0" x2="1" y1="0" y2="0" gradientTransform="matrix(-13.3491,-55.4555,100.385,-7.37441,428.378,375.307)" gradientUnits="userSpaceOnUse"><stop offset="0%" style="stop-color:#dceaff;stop-opacity:1" id="stop306"/><stop offset="100%" style="stop-color:#ffffeb;stop-opacity:1" id="stop308"/></linearGradient><linearGradient id="_Linear27" x1="0" x2="1" y1="0" y2="0" gradientTransform="matrix(-13.3491,-55.4555,100.385,-7.37441,428.378,375.307)" gradientUnits="userSpaceOnUse"><stop offset="0%" style="stop-color:#dceaff;stop-opacity:1" id="stop311"/><stop offset="100%" style="stop-color:#ffffeb;stop-opacity:1" id="stop313"/></linearGradient><linearGradient id="_Linear28" x1="0" x2="1" y1="0" y2="0" gradientTransform="matrix(-13.3491,-55.4555,100.385,-7.37441,428.378,375.307)" gradientUnits="userSpaceOnUse"><stop offset="0%" style="stop-color:#dceaff;stop-opacity:1" id="stop316"/><stop offset="100%" style="stop-color:#ffffeb;stop-opacity:1" id="stop318"/></linearGradient><linearGradient id="_Linear29" x1="0" x2="1" y1="0" y2="0" gradientTransform="matrix(-13.3491,-55.4555,100.385,-7.37441,428.378,375.307)" gradientUnits="userSpaceOnUse"><stop offset="0%" style="stop-color:#dceaff;stop-opacity:1" id="stop321"/><stop offset="100%" style="stop-color:#ffffeb;stop-opacity:1" id="stop323"/></linearGradient><linearGradient id="_Linear31" x1="0" x2="1" y1="0" y2="0" gradientTransform="matrix(-42.6192,-320.496,320.496,-42.6192,347.849,572.965)" gradientUnits="userSpaceOnUse"><stop offset="0%" style="stop-color:#0072a7;stop-opacity:1" id="stop326"/><stop offset="100%" style="stop-color:#080065;stop-opacity:1" id="stop328"/></linearGradient><radialGradient id="_Radial32" cx="0" cy="0" r="1" gradientTransform="matrix(7.50764,112.339,-276.186,18.4576,292.027,425.187)" gradientUnits="userSpaceOnUse"><stop offset="0%" style="stop-color:#001f35;stop-opacity:1" id="stop331"/><stop offset="100%" style="stop-color:#34345c;stop-opacity:1" id="stop333"/></radialGradient><linearGradient id="_Linear33" x1="0" x2="1" y1="0" y2="0" gradientTransform="matrix(4.36862,55.7957,-55.7957,4.36862,273.59,385.426)" gradientUnits="userSpaceOnUse"><stop offset="0%" style="stop-color:#dceaff;stop-opacity:1" id="stop336"/><stop offset="100%" style="stop-color:#ffffeb;stop-opacity:1" id="stop338"/></linearGradient><linearGradient id="_Linear34" x1="0" x2="1" y1="0" y2="0" gradientTransform="matrix(-13.3491,-55.4555,100.385,-7.37441,428.378,375.307)" gradientUnits="userSpaceOnUse"><stop offset="0%" style="stop-color:#dceaff;stop-opacity:1" id="stop341"/><stop offset="100%" style="stop-color:#ffffeb;stop-opacity:1" id="stop343"/></linearGradient><linearGradient id="_Linear35" x1="0" x2="1" y1="0" y2="0" gradientTransform="matrix(-13.3491,-55.4555,100.385,-7.37441,428.378,375.307)" gradientUnits="userSpaceOnUse"><stop offset="0%" style="stop-color:#dceaff;stop-opacity:1" id="stop346"/><stop offset="100%" style="stop-color:#ffffeb;stop-opacity:1" id="stop348"/></linearGradient><linearGradient id="_Linear36" x1="0" x2="1" y1="0" y2="0" gradientTransform="matrix(-13.3491,-55.4555,100.385,-7.37441,428.378,375.307)" gradientUnits="userSpaceOnUse"><stop offset="0%" style="stop-color:#dceaff;stop-opacity:1" id="stop351"/><stop offset="100%" style="stop-color:#ffffeb;stop-opacity:1" id="stop353"/></linearGradient><linearGradient id="_Linear37" x1="0" x2="1" y1="0" y2="0" gradientTransform="matrix(-13.3491,-55.4555,100.385,-7.37441,428.378,375.307)" gradientUnits="userSpaceOnUse"><stop offset="0%" style="stop-color:#dceaff;stop-opacity:1" id="stop356"/><stop offset="100%" style="stop-color:#ffffeb;stop-opacity:1" id="stop358"/></linearGradient><linearGradient id="_Linear38" x1="0" x2="1" y1="0" y2="0" gradientTransform="matrix(-13.3491,-55.4555,100.385,-7.37441,428.378,375.307)" gradientUnits="userSpaceOnUse"><stop offset="0%" style="stop-color:#dceaff;stop-opacity:1" id="stop361"/><stop offset="100%" style="stop-color:#ffffeb;stop-opacity:1" id="stop363"/></linearGradient><linearGradient id="_Linear39" x1="0" x2="1" y1="0" y2="0" gradientTransform="matrix(-13.3491,-55.4555,100.385,-7.37441,428.378,375.307)" gradientUnits="userSpaceOnUse"><stop offset="0%" style="stop-color:#dceaff;stop-opacity:1" id="stop366"/><stop offset="100%" style="stop-color:#ffffeb;stop-opacity:1" id="stop368"/></linearGradient><clipPath id="_clip11"><rect id="rect49" width="234.511" height="196.518" x="230.594" y="362.896"/></clipPath><clipPath id="_clip20"><rect id="rect90" width="234.511" height="196.518" x="230.594" y="362.896"/></clipPath><clipPath id="_clip30"><rect id="rect135" width="234.511" height="196.518" x="230.594" y="362.896"/></clipPath></defs><path id="path1771" d="m 362.78702,266.87359 c -5.60875,0 -8.3775,6.81814 -4.35812,10.73002 l 29.89817,29.89504 h -72.33136 c -8.45189,-0.11937 -8.45189,12.61939 0,12.50002 h 72.32511 l -29.89505,29.89504 c -6.1352,5.89071 2.94719,14.97314 8.83814,8.83814 l 40.56942,-40.56256 c 2.41877,-2.42375 2.44377,-6.39251 0,-8.83751 l -40.56629,-40.56444 c -1.17688,-1.20937 -2.7925,-1.89175 -4.48002,-1.89187 z" style="fill:#fff;fill-opacity:1;stroke-width:6.25000858"/></svg>